<svg width="16" height="16" viewBox="0 0 16 16" fill="none" xmlns="http://www.w3.org/2000/svg">
<path d="M0.895348 7.10465C0.637595 7.10465 0.427324 7.19283 0.264534 7.36919C0.0881777 7.53198 0 7.74225 0 8C0 8.25775 0.0881777 8.47481 0.264534 8.65116C0.427324 8.81395 0.637595 8.89535 0.895348 8.89535H7.10465V15.0843C7.10465 15.3421 7.19283 15.5591 7.36919 15.7355C7.53198 15.9118 7.74225 16 8 16C8.25775 16 8.47481 15.9118 8.65116 15.7355C8.81395 15.5591 8.89535 15.3421 8.89535 15.0843V8.89535H15.1047C15.3624 8.89535 15.5795 8.81395 15.7558 8.65116C15.9186 8.47481 16 8.25775 16 8C16 7.74225 15.9186 7.53198 15.7558 7.36919C15.5795 7.19283 15.3624 7.10465 15.1047 7.10465H8.89535V0.895349C8.89535 0.637597 8.81395 0.427326 8.65116 0.264535C8.47481 0.0881784 8.25775 0 8 0C7.74225 0 7.53198 0.0881784 7.36919 0.264535C7.19283 0.427326 7.10465 0.637597 7.10465 0.895349V7.10465H0.895348Z" fill="url(#paint0_linear)"/>
<defs>
<linearGradient id="paint0_linear" x1="-4.76837e-07" y1="16" x2="11.1032" y2="-2.87982" gradientUnits="userSpaceOnUse">
<stop stop-color="#15B6D6"/>
<stop offset="1" stop-color="#15D6D6"/>
</linearGradient>
</defs>
</svg>
